<svg xmlns="http://www.w3.org/2000/svg" viewBox="0 -2 122 26.2" width="244" height="52.4" role="img" aria-label="podium">
  <title>podium</title>
  <style>
    .b{fill:#0b0b0e}.on{fill:#fff}.soft{fill:#8b8b96}.ink{fill:#0b0b0e;stroke:#0b0b0e}.line{fill:none;stroke:#0b0b0e}
  </style>
  <!-- Badge: three podium steps, centred on the wordmark's x-height. -->
  <g transform="translate(0 -1.96) scale(0.5909)">
    <rect width="44" height="44" rx="12" class="b"/>
    <rect x="5.5" y="19" width="9" height="16" rx="3" class="soft"/>
    <rect x="17.5" y="9" width="9" height="26" rx="3" class="on"/>
    <rect x="29.5" y="24" width="9" height="11" rx="3" class="soft"/>
  </g>
  <!-- Wordmark: the p, o and d outlines are the reference's own glyphs; i, u and m are built in the same
       extended, squared style (2.83 stroke, small corner radius, flat terminals). No font needed. -->
  <g transform="translate(34 0)">
    <g class="ink" stroke-width="0.945" stroke-linecap="round" fill-rule="evenodd">
      <path transform="translate(-27.784 0)" d="M 29.67 23 L 27.784 23 L 27.784 4.37 L 38.594 4.37 Q 39.353 4.37 39.986 4.75 Q 40.618 5.129 40.998 5.762 Q 41.377 6.394 41.377 7.153 L 41.377 14.927 A 2.654 2.654 0 0 1 40.998 16.318 Q 40.618 16.951 39.986 17.331 Q 39.353 17.71 38.594 17.71 L 29.67 17.71 L 29.67 23 Z M 30.59 15.824 L 38.594 15.824 A 0.862 0.862 0 0 0 39.218 15.568 A 1.071 1.071 0 0 0 39.227 15.56 A 0.885 0.885 0 0 0 39.447 15.21 A 0.894 0.894 0 0 0 39.491 14.927 L 39.491 7.153 A 0.862 0.862 0 0 0 39.235 6.529 A 1.071 1.071 0 0 0 39.227 6.52 A 0.885 0.885 0 0 0 38.877 6.3 A 0.894 0.894 0 0 0 38.594 6.256 L 30.59 6.256 Q 30.222 6.256 29.946 6.521 Q 29.67 6.785 29.67 7.153 L 29.67 14.927 A 0.842 0.842 0 0 0 29.929 15.543 A 1.083 1.083 0 0 0 29.946 15.559 Q 30.222 15.824 30.59 15.824 Z"/>
      <path transform="translate(-36.584 0)" d="M 52.417 14.927 L 52.417 7.153 Q 52.417 6.394 52.797 5.762 Q 53.176 5.129 53.809 4.75 Q 54.441 4.37 55.2 4.37 L 63.204 4.37 A 2.769 2.769 0 0 1 64.24 4.562 A 2.629 2.629 0 0 1 64.619 4.75 Q 65.251 5.129 65.631 5.762 Q 66.01 6.394 66.01 7.153 L 66.01 14.927 Q 66.01 15.686 65.631 16.319 Q 65.251 16.951 64.619 17.331 A 2.684 2.684 0 0 1 63.259 17.71 A 3.19 3.19 0 0 1 63.204 17.71 L 55.2 17.71 Q 54.441 17.71 53.809 17.331 Q 53.176 16.951 52.797 16.319 A 2.654 2.654 0 0 1 52.417 14.927 Z M 55.2 15.824 L 63.204 15.824 A 0.862 0.862 0 0 0 63.828 15.568 A 1.071 1.071 0 0 0 63.837 15.56 A 0.885 0.885 0 0 0 64.057 15.21 A 0.894 0.894 0 0 0 64.101 14.927 L 64.101 7.153 A 0.862 0.862 0 0 0 63.845 6.529 A 1.071 1.071 0 0 0 63.837 6.52 A 0.885 0.885 0 0 0 63.487 6.3 A 0.894 0.894 0 0 0 63.204 6.256 L 55.2 6.256 A 0.862 0.862 0 0 0 54.576 6.512 A 1.071 1.071 0 0 0 54.568 6.52 A 0.885 0.885 0 0 0 54.347 6.87 A 0.894 0.894 0 0 0 54.303 7.153 L 54.303 14.927 A 0.862 0.862 0 0 0 54.559 15.551 A 1.071 1.071 0 0 0 54.568 15.56 A 0.885 0.885 0 0 0 54.917 15.78 A 0.894 0.894 0 0 0 55.2 15.824 Z"/>
      <path transform="translate(-68.265 0)" d="M 99.935 14.927 L 99.935 7.153 Q 99.935 6.394 100.315 5.762 Q 100.694 5.129 101.327 4.75 A 2.684 2.684 0 0 1 102.686 4.37 A 3.19 3.19 0 0 1 102.741 4.37 L 111.642 4.37 L 111.642 0 L 113.528 0 L 113.528 17.71 L 102.741 17.71 A 2.769 2.769 0 0 1 101.705 17.518 A 2.629 2.629 0 0 1 101.327 17.33 Q 100.694 16.951 100.315 16.319 A 2.654 2.654 0 0 1 99.935 14.927 Z M 102.741 15.824 L 110.745 15.824 A 0.862 0.862 0 0 0 111.369 15.568 A 1.071 1.071 0 0 0 111.378 15.56 A 0.885 0.885 0 0 0 111.598 15.21 A 0.894 0.894 0 0 0 111.642 14.927 L 111.642 7.153 A 0.862 0.862 0 0 0 111.386 6.529 A 1.071 1.071 0 0 0 111.378 6.52 A 0.885 0.885 0 0 0 111.028 6.3 A 0.894 0.894 0 0 0 110.745 6.256 L 102.741 6.256 A 0.862 0.862 0 0 0 102.117 6.512 A 1.071 1.071 0 0 0 102.109 6.52 A 0.885 0.885 0 0 0 101.888 6.87 A 0.894 0.894 0 0 0 101.844 7.153 L 101.844 14.927 A 0.862 0.862 0 0 0 102.1 15.551 A 1.071 1.071 0 0 0 102.109 15.56 A 0.885 0.885 0 0 0 102.458 15.78 A 0.894 0.894 0 0 0 102.741 15.824 Z"/>
    </g>
    <g class="line" stroke-width="2.83" stroke-linecap="butt" stroke-linejoin="round">
      <path transform="translate(1.63 0)" d="M46.822 3.9V18.18"/>
      <path transform="translate(2.18 0)" d="M50.405 3.9V15.165A1.6 1.6 0 0 0 52.005 16.765H60.515A1.6 1.6 0 0 0 62.115 15.165V3.9"/>
      <path transform="translate(1.78 0)" d="M66.645 3.9V18.18"/>
      <path transform="translate(1.78 0)" d="M66.645 6.915A1.6 1.6 0 0 1 68.245 5.315H73.8A1.6 1.6 0 0 1 75.4 6.915V18.18"/>
      <path transform="translate(1.78 0)" d="M75.4 6.915A1.6 1.6 0 0 1 77 5.315H82.555A1.6 1.6 0 0 1 84.155 6.915V18.18"/>
    </g>
    <rect x="47.04" y="-0.47" width="2.83" height="2.83" rx="0.5" class="b"/>
  </g>
</svg>
